<svg xmlns="http://www.w3.org/2000/svg" xmlns:xlink="http://www.w3.org/1999/xlink" color-interpolation="auto" stroke="#000" stroke-linecap="square" width="725" stroke-miterlimit="10" height="270" font-family="'Dialog'" font-size="12"><path clip-path="url(#clipPath2)" stroke="none" d="M737 233h725v270H737z" transform="translate(-737 -233)" fill="#fff" text-rendering="geometricPrecision" shape-rendering="geometricPrecision"/><g id="y.node.0"><svg shape-rendering="auto" color-profile="auto" lighting-color="#FFF" color="#000" font-weight="400" alignment-baseline="auto" color-interpolation-filters="linearrgb" stroke-linecap="butt" color-interpolation="srgb" text-rendering="auto" viewBox="-0.811 -0.063 65 53" overflow="visible" stroke-miterlimit="4" pointer-events="visiblepainted" width="65" cursor="auto" stroke="none" filter="none" font-family="&quot;Arial&quot;,&quot;Helvetica&quot;,sans-serif" flood-opacity="1" height="53" flood-color="#000" transform="matrix(1 0 0 1.0001 143.2 108.314)"><defs><clipPath id="clipPath1"><path d="M0 0h725v270H0V0z"/></clipPath><clipPath id="clipPath2"><path d="M737 233h725v270H737V233z"/></clipPath><clipPath id="clipPath3"><path d="M0 0v17h60V0z"/></clipPath></defs><linearGradient gradientTransform="translate(-195.2 -770.8)" x1="220.962" x2="220.962" gradientUnits="userSpaceOnUse" y1="824.415" y2="801.092" id="svg1.SVGID_1_"><stop offset=".032" stop-color="gray"/><stop offset=".123" stop-color="#939393"/><stop offset=".27" stop-color="#ababab"/><stop offset=".427" stop-color="#bcbcbc"/><stop offset=".597" stop-color="#c6c6c6"/><stop offset=".806" stop-color="#c9c9c9"/></linearGradient><path fill="url(#svg1.SVGID_1_)" d="M51.333 51.918c.195.459-.053.836-.553.836H.58c-.5 0-.604-.272-.232-.605l8.023-7.191c.373-.334 1.086-.605 1.586-.605h37.255c.498 0 1.065.377 1.265.836l2.856 6.729z"/><path stroke-linecap="round" fill="none" stroke-linejoin="round" d="M51.333 51.918c.195.459-.053.836-.553.836H.58c-.5 0-.604-.272-.232-.605l8.023-7.191c.373-.334 1.086-.605 1.586-.605h37.255c.498 0 1.065.377 1.265.836l2.856 6.729z" stroke="#8D8D8D" stroke-width=".25" stroke-miterlimit="10"/><path fill="#717171" d="M32.117 50.571c0 .25-.205.454-.455.454H4.024c-.25 0-.304-.139-.119-.307l5.638-5.154c.184-.17.539-.309.789-.309h21.332c.25 0 .454.205.454.455l-.001 4.861zM40.738 50.598a.697.697 0 0 0 .609.428h7.465c.25 0 .375-.188.279-.42l-2.049-4.93a.745.745 0 0 0-.629-.42h-7.17c-.25 0-.386.191-.301.428l1.796 4.914zM32.89 50.571c0 .25.205.454.455.454h6.135c.25 0 .382-.189.293-.426l-.156-.409a.693.693 0 0 0-.615-.416l-1.045.021a.615.615 0 0 1-.574-.432l-.021-.082a.625.625 0 0 0-.571-.439h-1.316a.43.43 0 0 0-.432.453l.002.059a.433.433 0 0 1-.431.459l-1.269.021a.465.465 0 0 0-.454.461l-.001.276zM32.89 47.004c0 .25.205.455.455.455h4.845c.25 0 .396-.195.323-.437l-.402-1.333a.653.653 0 0 0-.585-.438h-4.181a.457.457 0 0 0-.455.455v1.298z"/><linearGradient gradientTransform="matrix(1 0 0 -1 -488 -1376.627)" x1="535.202" x2="511.463" gradientUnits="userSpaceOnUse" y1="-1418.656" y2="-1418.656" id="svg1.SVGID_2_"><stop offset="0" stop-color="#4d4d4d"/><stop offset="1" stop-color="#999"/></linearGradient><path fill="url(#svg1.SVGID_2_)" d="M47.048 40.514c0 .965-6.758 1.404-12.371 1.404-3.889 0-10.914-.348-11.367-1.267v1.661c0 .725 4.803 1.234 11.357 1.234 6.554 0 12.381-.643 12.381-1.361v-1.671z"/><path fill="gray" d="M35.179 39.307c6.556 0 11.869.584 11.869 1.307 0 .721-5.313 1.42-11.869 1.42-6.701 0-11.869-.697-11.869-1.42s5.315-1.307 11.869-1.307z"/><linearGradient gradientTransform="matrix(1 0 0 -1 -488 -1376.627)" x1="525.766" x2="520.77" gradientUnits="userSpaceOnUse" y1="-1412.687" y2="-1412.687" id="svg1.SVGID_3_"><stop offset="0" stop-color="#999"/><stop offset=".042" stop-color="#8d8d8d"/><stop offset=".162" stop-color="#717171"/><stop offset=".282" stop-color="#5d5d5d"/><stop offset=".402" stop-color="#515151"/><stop offset=".521" stop-color="#4d4d4d"/><stop offset=".62" stop-color="#565656"/><stop offset=".782" stop-color="#6e6e6e"/><stop offset=".984" stop-color="#969696"/><stop offset="1" stop-color="#999"/></linearGradient><path fill="url(#svg1.SVGID_3_)" d="M37.734 40.896s-1.477.096-2.498.096-2.499-.096-2.499-.096v-9.768h4.997v9.768z"/><radialGradient gradientTransform="matrix(1.15 0 0 -1 -453.472 -1376.627)" id="svg1.SVGID_4_" r="24.078" cx="415.869" gradientUnits="userSpaceOnUse" cy="-1386.515"><stop offset="0" stop-color="#f2f2f2"/><stop offset="1" stop-color="#666"/></radialGradient><path fill="url(#svg1.SVGID_4_)" d="M9.453 2.122c0-1.1.9-2 2-2h48.246c1.1 0 2 .9 2 2v30.073c0 1.101-.9 2-2 2H11.453c-1.1 0-2-.899-2-2V2.122z"/><path stroke-linecap="round" fill="none" stroke-linejoin="round" d="M9.453 2.122c0-1.1.9-2 2-2h48.246c1.1 0 2 .9 2 2v30.073c0 1.101-.9 2-2 2H11.453c-1.1 0-2-.899-2-2V2.122z" stroke="#666" stroke-width=".244" stroke-miterlimit="10"/><radialGradient gradientTransform="matrix(1.1935 0 0 -1 -443.565 -1376.627)" gradientUnits="userSpaceOnUse" r="53.334" cx="402.151" id="svg1.SVGID_5_" cy="-1378.366" fx="444.108" fy="-1385.554"><stop offset="0" stop-color="#4d4d4d"/><stop offset="1" stop-color="#999"/></radialGradient><path fill="url(#svg1.SVGID_5_)" d="M10.475 3.143c0-1.1.9-2 2-2h46.429c1.1 0 2 .9 2 2v27.805c0 1.1-.9 2-2 2H12.475c-1.1 0-2-.9-2-2V3.143z"/><radialGradient gradientTransform="matrix(1.1923 0 0 -1 -443.829 -1376.627)" id="svg1.SVGID_6_" r="34.187" cx="402.939" gradientUnits="userSpaceOnUse" cy="-1378.45"><stop offset="0" stop-color="#9cd7ff"/><stop offset="1" stop-color="#3c89c9"/></radialGradient><path fill="url(#svg1.SVGID_6_)" d="M11.043 3.598c0-1.1.9-2 2-2h45.294c1.1 0 2 .9 2 2v26.895c0 1.1-.9 2-2 2H13.043c-1.1 0-2-.9-2-2V3.598z"/><path fill="#F2F2F2" opacity=".24" d="M11.043 24.936V3.598c0-1.1.9-2 2-2h45.294c1.1 0 2 .9 2 2v13.539l-23.164 4.94c-1.064.273-2.836.547-3.935.609l-22.195 2.25z"/><path fill="#C9C9C9" d="M58.777 46.596c-.003-.002-.005-.002-.007 0-.188-.061-.429-.254-.702-.482.267.154.51.322.709.482z"/><radialGradient gradientTransform="translate(-390.4 -1211.602)" id="svg1.SVGID_7_" r="6.377" cx="450.864" gradientUnits="userSpaceOnUse" cy="1259.151"><stop offset=".194" stop-color="#c9c9c9"/><stop offset=".33" stop-color="#c6c6c6"/><stop offset=".441" stop-color="#bcbcbc"/><stop offset=".542" stop-color="#ababab"/><stop offset=".638" stop-color="#939393"/><stop offset=".697" stop-color="gray"/></radialGradient><path fill="url(#svg1.SVGID_7_)" d="M58.77 46.596l.009.002c.002.004.006.004.006.004.084.023.153.021.213-.021.017-.008.026-.021.037-.041.604-.119 1.329-.154 2.197-.086 2.032 1.545 3.77 4.625 1.18 5.801-2.048.929-3.543.783-4.722-.485a15.126 15.126 0 0 1-1.729-2.265c.265-1.136.894-2.444 2.809-2.909z"/><radialGradient gradientTransform="matrix(.9761 .2173 -.1478 .6641 -320.041 -1031.176)" id="svg1.SVGID_8_" r="3.825" cx="603.57" gradientUnits="userSpaceOnUse" cy="1426.635"><stop offset=".194" stop-color="#c9c9c9"/><stop offset=".374" stop-color="#c6c6c6"/><stop offset=".52" stop-color="#bcbcbc"/><stop offset=".655" stop-color="#ababab"/><stop offset=".782" stop-color="#939494"/><stop offset=".836" stop-color="#868787"/></radialGradient><path fill="url(#svg1.SVGID_8_)" d="M55.96 49.504c-.893-1.438-1.355-2.869-.664-3.533.244-.236.539-.422.863-.559.6.051 1.307.346 1.9.691.002 0 .005.004.007.006.272.229.519.426.702.482-1.913.47-2.542 1.778-2.808 2.913z"/><radialGradient gradientTransform="translate(-390.4 -1211.602)" id="svg1.SVGID_9_" r="3.928" cx="448.724" gradientUnits="userSpaceOnUse" cy="1259.327"><stop offset=".194" stop-color="#c9c9c9"/><stop offset=".35" stop-color="#c6c6c6"/><stop offset=".476" stop-color="#bcbcbc"/><stop offset=".593" stop-color="#ababab"/><stop offset=".702" stop-color="#939393"/><stop offset=".77" stop-color="gray"/></radialGradient><path fill="url(#svg1.SVGID_9_)" d="M56.16 45.414c1.353-.564 3.287-.266 4.963.955.035.025.073.055.109.084-.867-.068-1.818-.033-2.427.086-.109-.105-.763-.449-.744-.434-.597-.347-1.304-.642-1.901-.691z"/><path fill="none" stroke-width=".114" d="M56.16 45.414c1.353-.564 3.287-.266 4.963.955.035.025.073.055.109.084 2.032 1.545 3.77 4.627 1.18 5.801-2.048.93-3.543.785-4.722-.484a15.272 15.272 0 0 1-1.729-2.264c-.892-1.438-1.354-2.871-.664-3.533.244-.239.538-.424.863-.559z" stroke-miterlimit="10" stroke="#717171" stroke-linecap="round"/><path fill="none" stroke-width=".114" d="M58.777 46.596a3.64 3.64 0 0 1 .258-.057c.604-.119 1.329-.154 2.197-.086M55.958 49.516l.002-.012c.269-1.135.896-2.441 2.813-2.908M58.061 46.105c-.597-.35-1.306-.643-1.901-.693" stroke-miterlimit="10" stroke="#717171" stroke-linecap="round"/><path fill="none" stroke-width=".114" d="M58.779 46.598c0-.002 0-.002-.002-.002a5.595 5.595 0 0 0-.709-.482" stroke-miterlimit="10" stroke="#717171" stroke-linecap="round"/><path fill="#4D4D4D" d="M58.259 45.936c.354.264.438.48.548.604-.091.018-.173.033-.259.059-.355-.393-.996-.666-.955-.727.095-.143.47-.081.666.064z"/></svg><text x="754.548" y="372.154" stroke="none" transform="translate(-737 -233)" text-rendering="geometricPrecision" stroke-miterlimit="1.45" shape-rendering="geometricPrecision" font-family="sans-serif" stroke-linecap="butt">Client (192.168.1.2)</text></g><g id="y.node.1"><svg shape-rendering="auto" color-profile="auto" lighting-color="#FFF" color="#000" font-weight="400" alignment-baseline="auto" color-interpolation-filters="linearrgb" stroke-linecap="butt" color-interpolation="srgb" text-rendering="auto" viewBox="0 -0.741 36 57" overflow="visible" stroke-miterlimit="4" pointer-events="visiblepainted" width="36" cursor="auto" stroke="none" filter="none" font-family="&quot;Arial&quot;,&quot;Helvetica&quot;,sans-serif" flood-opacity="1" height="57" flood-color="#000" transform="translate(329.907 106.458)"><linearGradient gradientTransform="translate(-195.2 -770.8)" x1="230.177" x2="180.335" gradientUnits="userSpaceOnUse" y1="798.602" y2="798.602" id="svg2.SVGID_1_"><stop offset="0" stop-color="#4d4d4d"/><stop offset="1" stop-color="#8d8d8d"/></linearGradient><path fill="url(#svg2.SVGID_1_)" d="M0 .943h34.977v53.716H0z"/><linearGradient gradientTransform="translate(-195.2 -770.8)" x1="224.681" x2="200.697" gradientUnits="userSpaceOnUse" y1="798.602" y2="798.602" id="svg2.SVGID_2_"><stop offset=".032" stop-color="#848484"/><stop offset=".12" stop-color="#8c8c8c"/><stop offset=".308" stop-color="#969696"/><stop offset=".539" stop-color="#999"/><stop offset=".55" stop-color="#9c9c9c"/><stop offset=".626" stop-color="#b0b0b0"/><stop offset=".712" stop-color="#bebebe"/><stop offset=".818" stop-color="#c7c7c7"/><stop offset="1" stop-color="#c9c9c9"/></linearGradient><path fill="url(#svg2.SVGID_2_)" d="M5.497.943a76.675 76.675 0 0 1 23.983 0v53.716a76.675 76.675 0 0 1-23.983 0V.943z"/><path fill="#515151" d="M5.497 14.621H29.48v40.037a76.675 76.675 0 0 1-23.983 0V14.621z"/><path fill="#565656" opacity=".43" d="M5.497 4.745a152.885 152.885 0 0 1 23.983 0v8.12H5.497v-8.12z"/><path fill="none" stroke-width=".1" d="M5.497 4.745a152.885 152.885 0 0 1 23.983 0v8.12H5.497v-8.12z" stroke-miterlimit="10" opacity=".43" stroke="#4D4D4D"/><path fill="#565656" opacity=".43" stroke="#4D4D4D" stroke-width=".013" stroke-miterlimit="10" d="M6.496 5.746l3.373-.14v1.055l-3.373.138z"/><path fill="#E7ED00" stroke="#717171" stroke-width=".193" stroke-miterlimit="10" d="M31.307 2.517h3.692v1.505h-3.692z"/><path fill="#C8FF00" stroke="#717171" stroke-width=".193" stroke-miterlimit="10" d="M31.307 5.8h3.692v1.507h-3.692z"/><linearGradient y2="35.123" id="svg2.SVGID_3_" x1="29.441" gradientUnits="userSpaceOnUse" x2="5.5" y1="35.123"><stop offset="0" stop-color="gray"/><stop offset=".191" stop-color="#828282"/><stop offset=".295" stop-color="#8a8a8a"/><stop offset=".38" stop-color="#989898"/><stop offset=".452" stop-color="#acacac"/><stop offset=".517" stop-color="#c5c5c5"/><stop offset=".527" stop-color="#c9c9c9"/><stop offset=".591" stop-color="#c9c9c9"/><stop offset=".968" stop-color="#c9c9c9"/></linearGradient><path fill="url(#svg2.SVGID_3_)" d="M5.5 14.822v39.66a76.529 76.529 0 0 0 23.941 0v-39.66H5.5zm22.896 3.881l-2.225.029-.001-2.85 2.224-.008c.002.943.002 1.886.002 2.829zM16.354 42.496v-2.885c.744.006 1.489.006 2.233 0v2.885c-.744.007-1.489.007-2.233 0zm2.233 1.072v2.866c-.744.009-1.489.009-2.234 0v-2.866c.745.006 1.49.006 2.234 0zm-.001-15.826v2.886c-.744.004-1.488.004-2.231 0v-2.886c.744.004 1.487.004 2.231 0zm-2.232-1.071v-2.865c.743.002 1.487.002 2.23 0v2.865c-.742.004-1.485.004-2.23 0zm0 7.912v-2.885c.744.004 1.488.004 2.231 0v2.885c-.743.005-1.486.005-2.231 0zm2.232 1.073l.001 2.885c-.745.008-1.489.008-2.233 0v-2.885c.745.004 1.488.004 2.232 0zm-3.279-5.037c-.742-.01-1.484-.021-2.227-.039v-2.875c.742.014 1.485.023 2.226.029l.001 2.885zm0 1.07v2.885a165.43 165.43 0 0 1-2.227-.047l.001-2.877c.741.017 1.484.03 2.226.039zm0 3.955l-.001 2.883c-.742-.012-1.485-.031-2.228-.056l.001-2.877c.742.023 1.485.039 2.228.05zm-.001 3.953v2.883c-.742-.016-1.486-.037-2.228-.064l.001-2.877c.741.025 1.484.046 2.227.058zm4.331 0c.742-.012 1.484-.033 2.227-.059v2.875c-.741.029-1.483.052-2.227.064v-2.88zm0-1.07v-2.883c.74-.012 1.482-.027 2.225-.05 0 .959 0 1.918.002 2.876-.743.026-1.487.045-2.227.057zm0-3.955c0-.961 0-1.922-.002-2.883.741-.01 1.483-.021 2.225-.039.002.957.002 1.916.002 2.875-.743.022-1.486.039-2.225.047zm-.002-3.953v-2.885c.74-.006 1.483-.017 2.225-.029v2.875c-.742.019-1.484.029-2.225.039zm-.002-3.953v-2.864c.741-.005 1.483-.013 2.227-.021v2.856c-.742.013-1.485.023-2.227.029zm0-3.934l-.001-2.885c.741-.002 1.483-.006 2.226-.012l.002 2.877c-.744.008-1.486.016-2.227.02zm-1.047.004c-.744.002-1.487.002-2.23 0v-2.887c.743.002 1.487.002 2.23 0v2.887zm-3.277-.004c-.742-.004-1.483-.012-2.226-.02l.001-2.877c.742.006 1.484.01 2.226.012l-.001 2.885zm0 1.069v2.864a332.32 332.32 0 0 1-2.227-.027v-2.859c.743.01 1.484.017 2.227.022zm-3.273 2.816c-.742-.017-1.483-.033-2.225-.055l.001-2.841c.741.019 1.483.031 2.225.042l-.001 2.854zm-.001 1.066v2.873c-.742-.021-1.483-.047-2.225-.076v-2.857c.742.023 1.483.044 2.225.06zm0 3.938l-.001 2.871c-.742-.023-1.483-.055-2.224-.092v-2.859c.741.031 1.482.059 2.225.08zm-.002 3.939l-.001 2.871c-.742-.031-1.484-.066-2.225-.111l.001-2.858c.741.038 1.483.071 2.225.098zm-.002 3.938l-.001 2.869c-.742-.035-1.484-.078-2.225-.129l.001-2.857c.741.045 1.483.084 2.225.117zm-.001 3.937l-.001 2.854a91.957 91.957 0 0 1-2.225-.149l.001-2.838c.741.051 1.483.098 2.225.133zm1.047.047a97.64 97.64 0 0 0 2.228.067v2.864a97.776 97.776 0 0 1-2.229-.074l.001-2.857zm2.228 4.004v2.883a92.29 92.29 0 0 1-2.23-.084l.001-2.875c.742.033 1.486.058 2.229.076zm1.048.018c.745.009 1.49.009 2.234 0l.001 2.883a75.69 75.69 0 0 1-2.235 0v-2.883zm3.286-.018c.741-.018 1.483-.043 2.227-.076l.002 2.875c-.742.037-1.486.065-2.229.084v-2.883zm-.002-1.072V43.55a104.24 104.24 0 0 0 2.229-.067v2.857c-.744.033-1.487.058-2.229.074zm3.274-2.979a92.106 92.106 0 0 0 2.224-.135c0 .945 0 1.895.002 2.838-.74.059-1.482.107-2.226.15v-2.853zm0-1.066l-.002-2.871a103.91 103.91 0 0 0 2.225-.117l.001 2.857c-.74.051-1.483.095-2.224.131zm-.002-3.938l-.001-2.871c.742-.027 1.482-.061 2.224-.098l.001 2.857c-.74.044-1.483.081-2.224.112zm-.001-3.937l-.002-2.871c.742-.021 1.482-.051 2.225-.079l.001 2.856c-.741.037-1.484.068-2.224.094zm-.002-3.938c0-.957 0-1.916-.002-2.873.742-.016 1.484-.037 2.226-.061l.001 2.857c-.74.03-1.483.056-2.225.077zm-.002-3.939v-2.854c.74-.011 1.482-.025 2.224-.042l.001 2.841c-.74.021-1.483.039-2.225.055zm-.002-3.918v-2.874c.742-.007 1.482-.014 2.225-.023l.001 2.859c-.741.015-1.482.028-2.226.038zm0-3.939c-.002-.958-.002-1.915-.002-2.873.742 0 1.481-.003 2.225-.004l.002 2.858c-.742.009-1.484.015-2.225.019zm-1.047.007c-.742.004-1.482.007-2.225.009v-2.884l2.225-.002v2.877zm-3.27.012h-2.229v-2.885h2.229v2.885zm-3.275-.002c-.742-.002-1.483-.005-2.225-.009v-2.877l2.225.002v2.884zm-3.271-.017a550.13 550.13 0 0 1-2.225-.019l.001-2.858c.742.001 1.483.004 2.224.004v2.873zm0 1.067l-.001 2.872c-.741-.01-1.483-.021-2.224-.035v-2.859l2.225.022zM8.768 22.64c-.741-.018-1.482-.035-2.223-.057v-2.831l2.223.036v2.852zm-.001 1.057v2.832c-.741-.024-1.482-.053-2.223-.084v-2.811c.74.024 1.482.045 2.223.063zm-.001 3.89l-.001 2.85c-.74-.033-1.481-.068-2.222-.111v-2.83c.741.033 1.482.064 2.223.091zm-.001 3.907l-.001 2.852c-.74-.04-1.481-.087-2.221-.139v-2.831c.74.044 1.48.083 2.222.118zm-.002 3.91v2.851a136.36 136.36 0 0 1-2.22-.168v-2.829c.739.052 1.479.103 2.22.146zm-.001 3.908l-.001 2.852a126.02 126.02 0 0 1-2.219-.195v-2.83c.739.064 1.479.121 2.22.173zm-.002 3.907l-.001 2.832c-.74-.065-1.479-.14-2.218-.224v-2.812c.74.077 1.479.145 2.219.204zm-.001 3.89v2.851a75.289 75.289 0 0 1-2.219-.253v-2.828c.739.085 1.479.16 2.219.23zm1.045.092c.741.06 1.483.111 2.224.154v2.868a92.067 92.067 0 0 1-2.225-.166l.001-2.856zm2.223 4.09v2.873a79.11 79.11 0 0 1-2.225-.188l.001-2.857a78.93 78.93 0 0 0 2.224.172zm1.048.062c.743.039 1.486.067 2.229.086v2.885a82.857 82.857 0 0 1-2.229-.094v-2.877zm3.278.106c.745.009 1.49.009 2.235 0v2.885c-.745.013-1.491.013-2.235 0v-2.885zm3.286-.02a92.814 92.814 0 0 0 2.229-.086l.001 2.877c-.743.041-1.485.072-2.229.094l-.001-2.885zm3.274-.148a79.361 79.361 0 0 0 2.226-.172v2.857c-.74.073-1.481.135-2.224.188l-.002-2.873zm0-1.067l-.001-2.869c.742-.043 1.484-.095 2.225-.154 0 .953 0 1.906.002 2.857-.743.065-1.485.121-2.226.166zm3.271-3.115a91.956 91.956 0 0 0 2.217-.229v2.83a96.32 96.32 0 0 1-2.217.252v-2.853zm0-1.058c-.002-.944-.002-1.888-.002-2.832.739-.06 1.48-.127 2.219-.202v2.811c-.739.084-1.478.158-2.217.223zm-.002-3.889l-.002-2.85c.74-.052 1.48-.109 2.219-.176.002.943.002 1.887.002 2.83-.739.073-1.48.139-2.219.196zm-.002-3.909c0-.95 0-1.9-.002-2.852.742-.041 1.482-.093 2.221-.146v2.829c-.739.066-1.479.119-2.219.169zm-.002-3.908v-2.852c.74-.034 1.481-.073 2.221-.117v2.83c-.74.052-1.481.099-2.221.139zm-.001-3.908l-.001-2.85a272.87 272.87 0 0 0 2.221-.092l.002 2.83c-.74.042-1.481.079-2.222.112zm-.001-3.908l-.001-2.832c.742-.018 1.482-.039 2.222-.063v2.811c-.74.031-1.48.058-2.221.084zm-.002-3.889l-.001-2.851c.741-.01 1.483-.022 2.224-.035v2.831c-.74.02-1.482.038-2.223.055zM8.769 15.881l-.001 2.85c-.741-.008-1.482-.018-2.223-.028v-2.83l2.224.008zM6.54 50.758c.738.097 1.478.183 2.218.258v2.853a91.37 91.37 0 0 1-2.218-.28v-2.831zm19.644 3.111v-2.853a79.183 79.183 0 0 0 2.217-.259c.002.941.002 1.889.002 2.83-.74.106-1.478.198-2.219.282z"/><path fill="#FFF" id="svg2.highlight_2_" d="M0 .943h5.497S12.344 0 17.471 0C22.6 0 29.48.943 29.48.943h5.496v41.951s-12.076-.521-18.623-2.548C9.807 38.32 0 30.557 0 30.557V.943z" opacity=".17"/></svg><text x="1047.81" y="413.255" stroke="none" transform="translate(-737 -233)" text-rendering="geometricPrecision" stroke-miterlimit="1.45" shape-rendering="geometricPrecision" font-family="sans-serif" stroke-linecap="butt">Front server</text><text x="1108.002" y="359.039" stroke="none" transform="translate(-737 -233)" text-rendering="geometricPrecision" stroke-miterlimit="1.45" shape-rendering="geometricPrecision" font-family="sans-serif" stroke-linecap="butt">10.0.0.1</text><text x="988.385" y="359.039" stroke="none" transform="translate(-737 -233)" text-rendering="geometricPrecision" stroke-miterlimit="1.45" shape-rendering="geometricPrecision" font-family="sans-serif" stroke-linecap="butt">192.168.1.1</text></g><g onmouseout="HideTooltip(evt)" id="y.node.2" onmousemove="ShowTooltip(evt)"><svg shape-rendering="auto" color-profile="auto" lighting-color="#FFF" color="#000" font-weight="400" alignment-baseline="auto" color-interpolation-filters="linearrgb" stroke-linecap="butt" color-interpolation="srgb" text-rendering="auto" viewBox="0 -0.741 36 57" overflow="visible" stroke-miterlimit="4" pointer-events="visiblepainted" width="36" cursor="auto" stroke="none" filter="none" font-family="&quot;Arial&quot;,&quot;Helvetica&quot;,sans-serif" flood-opacity="1" height="57" flood-color="#000" transform="translate(552.452 15.458)"><linearGradient gradientTransform="translate(-195.2 -770.8)" x1="230.177" x2="180.335" gradientUnits="userSpaceOnUse" y1="798.602" y2="798.602" id="svg3.SVGID_1_"><stop offset="0" stop-color="#4d4d4d"/><stop offset="1" stop-color="#8d8d8d"/></linearGradient><path fill="url(#svg3.SVGID_1_)" d="M0 .943h34.977v53.716H0z"/><linearGradient gradientTransform="translate(-195.2 -770.8)" x1="224.681" x2="200.697" gradientUnits="userSpaceOnUse" y1="798.602" y2="798.602" id="svg3.SVGID_2_"><stop offset=".032" stop-color="#848484"/><stop offset=".12" stop-color="#8c8c8c"/><stop offset=".308" stop-color="#969696"/><stop offset=".539" stop-color="#999"/><stop offset=".55" stop-color="#9c9c9c"/><stop offset=".626" stop-color="#b0b0b0"/><stop offset=".712" stop-color="#bebebe"/><stop offset=".818" stop-color="#c7c7c7"/><stop offset="1" stop-color="#c9c9c9"/></linearGradient><path fill="url(#svg3.SVGID_2_)" d="M5.497.943a76.675 76.675 0 0 1 23.983 0v53.716a76.675 76.675 0 0 1-23.983 0V.943z"/><path fill="#515151" d="M5.497 14.621H29.48v40.037a76.675 76.675 0 0 1-23.983 0V14.621z"/><path fill="#565656" opacity=".43" d="M5.497 4.745a152.885 152.885 0 0 1 23.983 0v8.12H5.497v-8.12z"/><path fill="none" stroke-width=".1" d="M5.497 4.745a152.885 152.885 0 0 1 23.983 0v8.12H5.497v-8.12z" stroke-miterlimit="10" opacity=".43" stroke="#4D4D4D"/><path fill="#565656" opacity=".43" stroke="#4D4D4D" stroke-width=".013" stroke-miterlimit="10" d="M6.496 5.746l3.373-.14v1.055l-3.373.138z"/><path fill="#E7ED00" stroke="#717171" stroke-width=".193" stroke-miterlimit="10" d="M31.307 2.517h3.692v1.505h-3.692z"/><path fill="#C8FF00" stroke="#717171" stroke-width=".193" stroke-miterlimit="10" d="M31.307 5.8h3.692v1.507h-3.692z"/><linearGradient y2="35.123" id="svg3.SVGID_3_" x1="29.441" gradientUnits="userSpaceOnUse" x2="5.5" y1="35.123"><stop offset="0" stop-color="gray"/><stop offset=".191" stop-color="#828282"/><stop offset=".295" stop-color="#8a8a8a"/><stop offset=".38" stop-color="#989898"/><stop offset=".452" stop-color="#acacac"/><stop offset=".517" stop-color="#c5c5c5"/><stop offset=".527" stop-color="#c9c9c9"/><stop offset=".591" stop-color="#c9c9c9"/><stop offset=".968" stop-color="#c9c9c9"/></linearGradient><path fill="url(#svg3.SVGID_3_)" d="M5.5 14.822v39.66a76.529 76.529 0 0 0 23.941 0v-39.66H5.5zm22.896 3.881l-2.225.029-.001-2.85 2.224-.008c.002.943.002 1.886.002 2.829zM16.354 42.496v-2.885c.744.006 1.489.006 2.233 0v2.885c-.744.007-1.489.007-2.233 0zm2.233 1.072v2.866c-.744.009-1.489.009-2.234 0v-2.866c.745.006 1.49.006 2.234 0zm-.001-15.826v2.886c-.744.004-1.488.004-2.231 0v-2.886c.744.004 1.487.004 2.231 0zm-2.232-1.071v-2.865c.743.002 1.487.002 2.23 0v2.865c-.742.004-1.485.004-2.23 0zm0 7.912v-2.885c.744.004 1.488.004 2.231 0v2.885c-.743.005-1.486.005-2.231 0zm2.232 1.073l.001 2.885c-.745.008-1.489.008-2.233 0v-2.885c.745.004 1.488.004 2.232 0zm-3.279-5.037c-.742-.01-1.484-.021-2.227-.039v-2.875c.742.014 1.485.023 2.226.029l.001 2.885zm0 1.07v2.885a165.43 165.43 0 0 1-2.227-.047l.001-2.877c.741.017 1.484.03 2.226.039zm0 3.955l-.001 2.883c-.742-.012-1.485-.031-2.228-.056l.001-2.877c.742.023 1.485.039 2.228.05zm-.001 3.953v2.883c-.742-.016-1.486-.037-2.228-.064l.001-2.877c.741.025 1.484.046 2.227.058zm4.331 0c.742-.012 1.484-.033 2.227-.059v2.875c-.741.029-1.483.052-2.227.064v-2.88zm0-1.07v-2.883c.74-.012 1.482-.027 2.225-.05 0 .959 0 1.918.002 2.876-.743.026-1.487.045-2.227.057zm0-3.955c0-.961 0-1.922-.002-2.883.741-.01 1.483-.021 2.225-.039.002.957.002 1.916.002 2.875-.743.022-1.486.039-2.225.047zm-.002-3.953v-2.885c.74-.006 1.483-.017 2.225-.029v2.875c-.742.019-1.484.029-2.225.039zm-.002-3.953v-2.864c.741-.005 1.483-.013 2.227-.021v2.856c-.742.013-1.485.023-2.227.029zm0-3.934l-.001-2.885c.741-.002 1.483-.006 2.226-.012l.002 2.877c-.744.008-1.486.016-2.227.02zm-1.047.004c-.744.002-1.487.002-2.23 0v-2.887c.743.002 1.487.002 2.23 0v2.887zm-3.277-.004c-.742-.004-1.483-.012-2.226-.02l.001-2.877c.742.006 1.484.01 2.226.012l-.001 2.885zm0 1.069v2.864a332.32 332.32 0 0 1-2.227-.027v-2.859c.743.01 1.484.017 2.227.022zm-3.273 2.816c-.742-.017-1.483-.033-2.225-.055l.001-2.841c.741.019 1.483.031 2.225.042l-.001 2.854zm-.001 1.066v2.873c-.742-.021-1.483-.047-2.225-.076v-2.857c.742.023 1.483.044 2.225.06zm0 3.938l-.001 2.871c-.742-.023-1.483-.055-2.224-.092v-2.859c.741.031 1.482.059 2.225.08zm-.002 3.939l-.001 2.871c-.742-.031-1.484-.066-2.225-.111l.001-2.858c.741.038 1.483.071 2.225.098zm-.002 3.938l-.001 2.869c-.742-.035-1.484-.078-2.225-.129l.001-2.857c.741.045 1.483.084 2.225.117zm-.001 3.937l-.001 2.854a91.957 91.957 0 0 1-2.225-.149l.001-2.838c.741.051 1.483.098 2.225.133zm1.047.047a97.64 97.64 0 0 0 2.228.067v2.864a97.776 97.776 0 0 1-2.229-.074l.001-2.857zm2.228 4.004v2.883a92.29 92.29 0 0 1-2.23-.084l.001-2.875c.742.033 1.486.058 2.229.076zm1.048.018c.745.009 1.49.009 2.234 0l.001 2.883a75.69 75.69 0 0 1-2.235 0v-2.883zm3.286-.018c.741-.018 1.483-.043 2.227-.076l.002 2.875c-.742.037-1.486.065-2.229.084v-2.883zm-.002-1.072V43.55a104.24 104.24 0 0 0 2.229-.067v2.857c-.744.033-1.487.058-2.229.074zm3.274-2.979a92.106 92.106 0 0 0 2.224-.135c0 .945 0 1.895.002 2.838-.74.059-1.482.107-2.226.15v-2.853zm0-1.066l-.002-2.871a103.91 103.91 0 0 0 2.225-.117l.001 2.857c-.74.051-1.483.095-2.224.131zm-.002-3.938l-.001-2.871c.742-.027 1.482-.061 2.224-.098l.001 2.857c-.74.044-1.483.081-2.224.112zm-.001-3.937l-.002-2.871c.742-.021 1.482-.051 2.225-.079l.001 2.856c-.741.037-1.484.068-2.224.094zm-.002-3.938c0-.957 0-1.916-.002-2.873.742-.016 1.484-.037 2.226-.061l.001 2.857c-.74.03-1.483.056-2.225.077zm-.002-3.939v-2.854c.74-.011 1.482-.025 2.224-.042l.001 2.841c-.74.021-1.483.039-2.225.055zm-.002-3.918v-2.874c.742-.007 1.482-.014 2.225-.023l.001 2.859c-.741.015-1.482.028-2.226.038zm0-3.939c-.002-.958-.002-1.915-.002-2.873.742 0 1.481-.003 2.225-.004l.002 2.858c-.742.009-1.484.015-2.225.019zm-1.047.007c-.742.004-1.482.007-2.225.009v-2.884l2.225-.002v2.877zm-3.27.012h-2.229v-2.885h2.229v2.885zm-3.275-.002c-.742-.002-1.483-.005-2.225-.009v-2.877l2.225.002v2.884zm-3.271-.017a550.13 550.13 0 0 1-2.225-.019l.001-2.858c.742.001 1.483.004 2.224.004v2.873zm0 1.067l-.001 2.872c-.741-.01-1.483-.021-2.224-.035v-2.859l2.225.022zM8.768 22.64c-.741-.018-1.482-.035-2.223-.057v-2.831l2.223.036v2.852zm-.001 1.057v2.832c-.741-.024-1.482-.053-2.223-.084v-2.811c.74.024 1.482.045 2.223.063zm-.001 3.89l-.001 2.85c-.74-.033-1.481-.068-2.222-.111v-2.83c.741.033 1.482.064 2.223.091zm-.001 3.907l-.001 2.852c-.74-.04-1.481-.087-2.221-.139v-2.831c.74.044 1.48.083 2.222.118zm-.002 3.91v2.851a136.36 136.36 0 0 1-2.22-.168v-2.829c.739.052 1.479.103 2.22.146zm-.001 3.908l-.001 2.852a126.02 126.02 0 0 1-2.219-.195v-2.83c.739.064 1.479.121 2.22.173zm-.002 3.907l-.001 2.832c-.74-.065-1.479-.14-2.218-.224v-2.812c.74.077 1.479.145 2.219.204zm-.001 3.89v2.851a75.289 75.289 0 0 1-2.219-.253v-2.828c.739.085 1.479.16 2.219.23zm1.045.092c.741.06 1.483.111 2.224.154v2.868a92.067 92.067 0 0 1-2.225-.166l.001-2.856zm2.223 4.09v2.873a79.11 79.11 0 0 1-2.225-.188l.001-2.857a78.93 78.93 0 0 0 2.224.172zm1.048.062c.743.039 1.486.067 2.229.086v2.885a82.857 82.857 0 0 1-2.229-.094v-2.877zm3.278.106c.745.009 1.49.009 2.235 0v2.885c-.745.013-1.491.013-2.235 0v-2.885zm3.286-.02a92.814 92.814 0 0 0 2.229-.086l.001 2.877c-.743.041-1.485.072-2.229.094l-.001-2.885zm3.274-.148a79.361 79.361 0 0 0 2.226-.172v2.857c-.74.073-1.481.135-2.224.188l-.002-2.873zm0-1.067l-.001-2.869c.742-.043 1.484-.095 2.225-.154 0 .953 0 1.906.002 2.857-.743.065-1.485.121-2.226.166zm3.271-3.115a91.956 91.956 0 0 0 2.217-.229v2.83a96.32 96.32 0 0 1-2.217.252v-2.853zm0-1.058c-.002-.944-.002-1.888-.002-2.832.739-.06 1.48-.127 2.219-.202v2.811c-.739.084-1.478.158-2.217.223zm-.002-3.889l-.002-2.85c.74-.052 1.48-.109 2.219-.176.002.943.002 1.887.002 2.83-.739.073-1.48.139-2.219.196zm-.002-3.909c0-.95 0-1.9-.002-2.852.742-.041 1.482-.093 2.221-.146v2.829c-.739.066-1.479.119-2.219.169zm-.002-3.908v-2.852c.74-.034 1.481-.073 2.221-.117v2.83c-.74.052-1.481.099-2.221.139zm-.001-3.908l-.001-2.85a272.87 272.87 0 0 0 2.221-.092l.002 2.83c-.74.042-1.481.079-2.222.112zm-.001-3.908l-.001-2.832c.742-.018 1.482-.039 2.222-.063v2.811c-.74.031-1.48.058-2.221.084zm-.002-3.889l-.001-2.851c.741-.01 1.483-.022 2.224-.035v2.831c-.74.02-1.482.038-2.223.055zM8.769 15.881l-.001 2.85c-.741-.008-1.482-.018-2.223-.028v-2.83l2.224.008zM6.54 50.758c.738.097 1.478.183 2.218.258v2.853a91.37 91.37 0 0 1-2.218-.28v-2.831zm19.644 3.111v-2.853a79.183 79.183 0 0 0 2.217-.259c.002.941.002 1.889.002 2.83-.74.106-1.478.198-2.219.282z"/><path fill="#FFF" id="svg3.highlight_2_" d="M0 .943h5.497S12.344 0 17.471 0C22.6 0 29.48.943 29.48.943h5.496v41.951s-12.076-.521-18.623-2.548C9.807 38.32 0 30.557 0 30.557V.943z" opacity=".17"/></svg><text x="1330.548" y="281.154" stroke="none" transform="translate(-737 -233)" text-rendering="geometricPrecision" stroke-miterlimit="1.45" shape-rendering="geometricPrecision" font-family="sans-serif" stroke-linecap="butt">Server 1 (10.0.0.2)</text></g><g id="y.node.3"><svg shape-rendering="auto" color-profile="auto" lighting-color="#FFF" color="#000" font-weight="400" alignment-baseline="auto" color-interpolation-filters="linearrgb" stroke-linecap="butt" color-interpolation="srgb" text-rendering="auto" viewBox="0 -0.741 36 57" overflow="visible" stroke-miterlimit="4" pointer-events="visiblepainted" width="36" cursor="auto" stroke="none" filter="none" font-family="&quot;Arial&quot;,&quot;Helvetica&quot;,sans-serif" flood-opacity="1" height="57" flood-color="#000" transform="translate(552.452 106.458)"><linearGradient gradientTransform="translate(-195.2 -770.8)" x1="230.177" x2="180.335" gradientUnits="userSpaceOnUse" y1="798.602" y2="798.602" id="svg4.SVGID_1_"><stop offset="0" stop-color="#4d4d4d"/><stop offset="1" stop-color="#8d8d8d"/></linearGradient><path fill="url(#svg4.SVGID_1_)" d="M0 .943h34.977v53.716H0z"/><linearGradient gradientTransform="translate(-195.2 -770.8)" x1="224.681" x2="200.697" gradientUnits="userSpaceOnUse" y1="798.602" y2="798.602" id="svg4.SVGID_2_"><stop offset=".032" stop-color="#848484"/><stop offset=".12" stop-color="#8c8c8c"/><stop offset=".308" stop-color="#969696"/><stop offset=".539" stop-color="#999"/><stop offset=".55" stop-color="#9c9c9c"/><stop offset=".626" stop-color="#b0b0b0"/><stop offset=".712" stop-color="#bebebe"/><stop offset=".818" stop-color="#c7c7c7"/><stop offset="1" stop-color="#c9c9c9"/></linearGradient><path fill="url(#svg4.SVGID_2_)" d="M5.497.943a76.675 76.675 0 0 1 23.983 0v53.716a76.675 76.675 0 0 1-23.983 0V.943z"/><path fill="#515151" d="M5.497 14.621H29.48v40.037a76.675 76.675 0 0 1-23.983 0V14.621z"/><path fill="#565656" opacity=".43" d="M5.497 4.745a152.885 152.885 0 0 1 23.983 0v8.12H5.497v-8.12z"/><path fill="none" stroke-width=".1" d="M5.497 4.745a152.885 152.885 0 0 1 23.983 0v8.12H5.497v-8.12z" stroke-miterlimit="10" opacity=".43" stroke="#4D4D4D"/><path fill="#565656" opacity=".43" stroke="#4D4D4D" stroke-width=".013" stroke-miterlimit="10" d="M6.496 5.746l3.373-.14v1.055l-3.373.138z"/><path fill="#E7ED00" stroke="#717171" stroke-width=".193" stroke-miterlimit="10" d="M31.307 2.517h3.692v1.505h-3.692z"/><path fill="#C8FF00" stroke="#717171" stroke-width=".193" stroke-miterlimit="10" d="M31.307 5.8h3.692v1.507h-3.692z"/><linearGradient y2="35.123" id="svg4.SVGID_3_" x1="29.441" gradientUnits="userSpaceOnUse" x2="5.5" y1="35.123"><stop offset="0" stop-color="gray"/><stop offset=".191" stop-color="#828282"/><stop offset=".295" stop-color="#8a8a8a"/><stop offset=".38" stop-color="#989898"/><stop offset=".452" stop-color="#acacac"/><stop offset=".517" stop-color="#c5c5c5"/><stop offset=".527" stop-color="#c9c9c9"/><stop offset=".591" stop-color="#c9c9c9"/><stop offset=".968" stop-color="#c9c9c9"/></linearGradient><path fill="url(#svg4.SVGID_3_)" d="M5.5 14.822v39.66a76.529 76.529 0 0 0 23.941 0v-39.66H5.5zm22.896 3.881l-2.225.029-.001-2.85 2.224-.008c.002.943.002 1.886.002 2.829zM16.354 42.496v-2.885c.744.006 1.489.006 2.233 0v2.885c-.744.007-1.489.007-2.233 0zm2.233 1.072v2.866c-.744.009-1.489.009-2.234 0v-2.866c.745.006 1.49.006 2.234 0zm-.001-15.826v2.886c-.744.004-1.488.004-2.231 0v-2.886c.744.004 1.487.004 2.231 0zm-2.232-1.071v-2.865c.743.002 1.487.002 2.23 0v2.865c-.742.004-1.485.004-2.23 0zm0 7.912v-2.885c.744.004 1.488.004 2.231 0v2.885c-.743.005-1.486.005-2.231 0zm2.232 1.073l.001 2.885c-.745.008-1.489.008-2.233 0v-2.885c.745.004 1.488.004 2.232 0zm-3.279-5.037c-.742-.01-1.484-.021-2.227-.039v-2.875c.742.014 1.485.023 2.226.029l.001 2.885zm0 1.07v2.885a165.43 165.43 0 0 1-2.227-.047l.001-2.877c.741.017 1.484.03 2.226.039zm0 3.955l-.001 2.883c-.742-.012-1.485-.031-2.228-.056l.001-2.877c.742.023 1.485.039 2.228.05zm-.001 3.953v2.883c-.742-.016-1.486-.037-2.228-.064l.001-2.877c.741.025 1.484.046 2.227.058zm4.331 0c.742-.012 1.484-.033 2.227-.059v2.875c-.741.029-1.483.052-2.227.064v-2.88zm0-1.07v-2.883c.74-.012 1.482-.027 2.225-.05 0 .959 0 1.918.002 2.876-.743.026-1.487.045-2.227.057zm0-3.955c0-.961 0-1.922-.002-2.883.741-.01 1.483-.021 2.225-.039.002.957.002 1.916.002 2.875-.743.022-1.486.039-2.225.047zm-.002-3.953v-2.885c.74-.006 1.483-.017 2.225-.029v2.875c-.742.019-1.484.029-2.225.039zm-.002-3.953v-2.864c.741-.005 1.483-.013 2.227-.021v2.856c-.742.013-1.485.023-2.227.029zm0-3.934l-.001-2.885c.741-.002 1.483-.006 2.226-.012l.002 2.877c-.744.008-1.486.016-2.227.02zm-1.047.004c-.744.002-1.487.002-2.23 0v-2.887c.743.002 1.487.002 2.23 0v2.887zm-3.277-.004c-.742-.004-1.483-.012-2.226-.02l.001-2.877c.742.006 1.484.01 2.226.012l-.001 2.885zm0 1.069v2.864a332.32 332.32 0 0 1-2.227-.027v-2.859c.743.01 1.484.017 2.227.022zm-3.273 2.816c-.742-.017-1.483-.033-2.225-.055l.001-2.841c.741.019 1.483.031 2.225.042l-.001 2.854zm-.001 1.066v2.873c-.742-.021-1.483-.047-2.225-.076v-2.857c.742.023 1.483.044 2.225.06zm0 3.938l-.001 2.871c-.742-.023-1.483-.055-2.224-.092v-2.859c.741.031 1.482.059 2.225.08zm-.002 3.939l-.001 2.871c-.742-.031-1.484-.066-2.225-.111l.001-2.858c.741.038 1.483.071 2.225.098zm-.002 3.938l-.001 2.869c-.742-.035-1.484-.078-2.225-.129l.001-2.857c.741.045 1.483.084 2.225.117zm-.001 3.937l-.001 2.854a91.957 91.957 0 0 1-2.225-.149l.001-2.838c.741.051 1.483.098 2.225.133zm1.047.047a97.64 97.64 0 0 0 2.228.067v2.864a97.776 97.776 0 0 1-2.229-.074l.001-2.857zm2.228 4.004v2.883a92.29 92.29 0 0 1-2.23-.084l.001-2.875c.742.033 1.486.058 2.229.076zm1.048.018c.745.009 1.49.009 2.234 0l.001 2.883a75.69 75.69 0 0 1-2.235 0v-2.883zm3.286-.018c.741-.018 1.483-.043 2.227-.076l.002 2.875c-.742.037-1.486.065-2.229.084v-2.883zm-.002-1.072V43.55a104.24 104.24 0 0 0 2.229-.067v2.857c-.744.033-1.487.058-2.229.074zm3.274-2.979a92.106 92.106 0 0 0 2.224-.135c0 .945 0 1.895.002 2.838-.74.059-1.482.107-2.226.15v-2.853zm0-1.066l-.002-2.871a103.91 103.91 0 0 0 2.225-.117l.001 2.857c-.74.051-1.483.095-2.224.131zm-.002-3.938l-.001-2.871c.742-.027 1.482-.061 2.224-.098l.001 2.857c-.74.044-1.483.081-2.224.112zm-.001-3.937l-.002-2.871c.742-.021 1.482-.051 2.225-.079l.001 2.856c-.741.037-1.484.068-2.224.094zm-.002-3.938c0-.957 0-1.916-.002-2.873.742-.016 1.484-.037 2.226-.061l.001 2.857c-.74.03-1.483.056-2.225.077zm-.002-3.939v-2.854c.74-.011 1.482-.025 2.224-.042l.001 2.841c-.74.021-1.483.039-2.225.055zm-.002-3.918v-2.874c.742-.007 1.482-.014 2.225-.023l.001 2.859c-.741.015-1.482.028-2.226.038zm0-3.939c-.002-.958-.002-1.915-.002-2.873.742 0 1.481-.003 2.225-.004l.002 2.858c-.742.009-1.484.015-2.225.019zm-1.047.007c-.742.004-1.482.007-2.225.009v-2.884l2.225-.002v2.877zm-3.27.012h-2.229v-2.885h2.229v2.885zm-3.275-.002c-.742-.002-1.483-.005-2.225-.009v-2.877l2.225.002v2.884zm-3.271-.017a550.13 550.13 0 0 1-2.225-.019l.001-2.858c.742.001 1.483.004 2.224.004v2.873zm0 1.067l-.001 2.872c-.741-.01-1.483-.021-2.224-.035v-2.859l2.225.022zM8.768 22.64c-.741-.018-1.482-.035-2.223-.057v-2.831l2.223.036v2.852zm-.001 1.057v2.832c-.741-.024-1.482-.053-2.223-.084v-2.811c.74.024 1.482.045 2.223.063zm-.001 3.89l-.001 2.85c-.74-.033-1.481-.068-2.222-.111v-2.83c.741.033 1.482.064 2.223.091zm-.001 3.907l-.001 2.852c-.74-.04-1.481-.087-2.221-.139v-2.831c.74.044 1.48.083 2.222.118zm-.002 3.91v2.851a136.36 136.36 0 0 1-2.22-.168v-2.829c.739.052 1.479.103 2.22.146zm-.001 3.908l-.001 2.852a126.02 126.02 0 0 1-2.219-.195v-2.83c.739.064 1.479.121 2.22.173zm-.002 3.907l-.001 2.832c-.74-.065-1.479-.14-2.218-.224v-2.812c.74.077 1.479.145 2.219.204zm-.001 3.89v2.851a75.289 75.289 0 0 1-2.219-.253v-2.828c.739.085 1.479.16 2.219.23zm1.045.092c.741.06 1.483.111 2.224.154v2.868a92.067 92.067 0 0 1-2.225-.166l.001-2.856zm2.223 4.09v2.873a79.11 79.11 0 0 1-2.225-.188l.001-2.857a78.93 78.93 0 0 0 2.224.172zm1.048.062c.743.039 1.486.067 2.229.086v2.885a82.857 82.857 0 0 1-2.229-.094v-2.877zm3.278.106c.745.009 1.49.009 2.235 0v2.885c-.745.013-1.491.013-2.235 0v-2.885zm3.286-.02a92.814 92.814 0 0 0 2.229-.086l.001 2.877c-.743.041-1.485.072-2.229.094l-.001-2.885zm3.274-.148a79.361 79.361 0 0 0 2.226-.172v2.857c-.74.073-1.481.135-2.224.188l-.002-2.873zm0-1.067l-.001-2.869c.742-.043 1.484-.095 2.225-.154 0 .953 0 1.906.002 2.857-.743.065-1.485.121-2.226.166zm3.271-3.115a91.956 91.956 0 0 0 2.217-.229v2.83a96.32 96.32 0 0 1-2.217.252v-2.853zm0-1.058c-.002-.944-.002-1.888-.002-2.832.739-.06 1.48-.127 2.219-.202v2.811c-.739.084-1.478.158-2.217.223zm-.002-3.889l-.002-2.85c.74-.052 1.48-.109 2.219-.176.002.943.002 1.887.002 2.83-.739.073-1.48.139-2.219.196zm-.002-3.909c0-.95 0-1.9-.002-2.852.742-.041 1.482-.093 2.221-.146v2.829c-.739.066-1.479.119-2.219.169zm-.002-3.908v-2.852c.74-.034 1.481-.073 2.221-.117v2.83c-.74.052-1.481.099-2.221.139zm-.001-3.908l-.001-2.85a272.87 272.87 0 0 0 2.221-.092l.002 2.83c-.74.042-1.481.079-2.222.112zm-.001-3.908l-.001-2.832c.742-.018 1.482-.039 2.222-.063v2.811c-.74.031-1.48.058-2.221.084zm-.002-3.889l-.001-2.851c.741-.01 1.483-.022 2.224-.035v2.831c-.74.02-1.482.038-2.223.055zM8.769 15.881l-.001 2.85c-.741-.008-1.482-.018-2.223-.028v-2.83l2.224.008zM6.54 50.758c.738.097 1.478.183 2.218.258v2.853a91.37 91.37 0 0 1-2.218-.28v-2.831zm19.644 3.111v-2.853a79.183 79.183 0 0 0 2.217-.259c.002.941.002 1.889.002 2.83-.74.106-1.478.198-2.219.282z"/><path fill="#FFF" id="svg4.highlight_2_" d="M0 .943h5.497S12.344 0 17.471 0C22.6 0 29.48.943 29.48.943h5.496v41.951s-12.076-.521-18.623-2.548C9.807 38.32 0 30.557 0 30.557V.943z" opacity=".17"/></svg><text x="1330.548" y="372.154" stroke="none" transform="translate(-737 -233)" text-rendering="geometricPrecision" stroke-miterlimit="1.45" shape-rendering="geometricPrecision" font-family="sans-serif" stroke-linecap="butt">Server 2 (10.0.0.3)</text></g><g id="y.node.4"><svg shape-rendering="auto" color-profile="auto" lighting-color="#FFF" color="#000" font-weight="400" alignment-baseline="auto" color-interpolation-filters="linearrgb" stroke-linecap="butt" color-interpolation="srgb" text-rendering="auto" viewBox="0 -0.741 36 57" overflow="visible" stroke-miterlimit="4" pointer-events="visiblepainted" width="36" cursor="auto" stroke="none" filter="none" font-family="&quot;Arial&quot;,&quot;Helvetica&quot;,sans-serif" flood-opacity="1" height="57" flood-color="#000" transform="translate(552.452 197.458)"><linearGradient gradientTransform="translate(-195.2 -770.8)" x1="230.177" x2="180.335" gradientUnits="userSpaceOnUse" y1="798.602" y2="798.602" id="svg5.SVGID_1_"><stop offset="0" stop-color="#4d4d4d"/><stop offset="1" stop-color="#8d8d8d"/></linearGradient><path fill="url(#svg5.SVGID_1_)" d="M0 .943h34.977v53.716H0z"/><linearGradient gradientTransform="translate(-195.2 -770.8)" x1="224.681" x2="200.697" gradientUnits="userSpaceOnUse" y1="798.602" y2="798.602" id="svg5.SVGID_2_"><stop offset=".032" stop-color="#848484"/><stop offset=".12" stop-color="#8c8c8c"/><stop offset=".308" stop-color="#969696"/><stop offset=".539" stop-color="#999"/><stop offset=".55" stop-color="#9c9c9c"/><stop offset=".626" stop-color="#b0b0b0"/><stop offset=".712" stop-color="#bebebe"/><stop offset=".818" stop-color="#c7c7c7"/><stop offset="1" stop-color="#c9c9c9"/></linearGradient><path fill="url(#svg5.SVGID_2_)" d="M5.497.943a76.675 76.675 0 0 1 23.983 0v53.716a76.675 76.675 0 0 1-23.983 0V.943z"/><path fill="#515151" d="M5.497 14.621H29.48v40.037a76.675 76.675 0 0 1-23.983 0V14.621z"/><path fill="#565656" opacity=".43" d="M5.497 4.745a152.885 152.885 0 0 1 23.983 0v8.12H5.497v-8.12z"/><path fill="none" stroke-width=".1" d="M5.497 4.745a152.885 152.885 0 0 1 23.983 0v8.12H5.497v-8.12z" stroke-miterlimit="10" opacity=".43" stroke="#4D4D4D"/><path fill="#565656" opacity=".43" stroke="#4D4D4D" stroke-width=".013" stroke-miterlimit="10" d="M6.496 5.746l3.373-.14v1.055l-3.373.138z"/><path fill="#E7ED00" stroke="#717171" stroke-width=".193" stroke-miterlimit="10" d="M31.307 2.517h3.692v1.505h-3.692z"/><path fill="#C8FF00" stroke="#717171" stroke-width=".193" stroke-miterlimit="10" d="M31.307 5.8h3.692v1.507h-3.692z"/><linearGradient y2="35.123" id="svg5.SVGID_3_" x1="29.441" gradientUnits="userSpaceOnUse" x2="5.5" y1="35.123"><stop offset="0" stop-color="gray"/><stop offset=".191" stop-color="#828282"/><stop offset=".295" stop-color="#8a8a8a"/><stop offset=".38" stop-color="#989898"/><stop offset=".452" stop-color="#acacac"/><stop offset=".517" stop-color="#c5c5c5"/><stop offset=".527" stop-color="#c9c9c9"/><stop offset=".591" stop-color="#c9c9c9"/><stop offset=".968" stop-color="#c9c9c9"/></linearGradient><path fill="url(#svg5.SVGID_3_)" d="M5.5 14.822v39.66a76.529 76.529 0 0 0 23.941 0v-39.66H5.5zm22.896 3.881l-2.225.029-.001-2.85 2.224-.008c.002.943.002 1.886.002 2.829zM16.354 42.496v-2.885c.744.006 1.489.006 2.233 0v2.885c-.744.007-1.489.007-2.233 0zm2.233 1.072v2.866c-.744.009-1.489.009-2.234 0v-2.866c.745.006 1.49.006 2.234 0zm-.001-15.826v2.886c-.744.004-1.488.004-2.231 0v-2.886c.744.004 1.487.004 2.231 0zm-2.232-1.071v-2.865c.743.002 1.487.002 2.23 0v2.865c-.742.004-1.485.004-2.23 0zm0 7.912v-2.885c.744.004 1.488.004 2.231 0v2.885c-.743.005-1.486.005-2.231 0zm2.232 1.073l.001 2.885c-.745.008-1.489.008-2.233 0v-2.885c.745.004 1.488.004 2.232 0zm-3.279-5.037c-.742-.01-1.484-.021-2.227-.039v-2.875c.742.014 1.485.023 2.226.029l.001 2.885zm0 1.07v2.885a165.43 165.43 0 0 1-2.227-.047l.001-2.877c.741.017 1.484.03 2.226.039zm0 3.955l-.001 2.883c-.742-.012-1.485-.031-2.228-.056l.001-2.877c.742.023 1.485.039 2.228.05zm-.001 3.953v2.883c-.742-.016-1.486-.037-2.228-.064l.001-2.877c.741.025 1.484.046 2.227.058zm4.331 0c.742-.012 1.484-.033 2.227-.059v2.875c-.741.029-1.483.052-2.227.064v-2.88zm0-1.07v-2.883c.74-.012 1.482-.027 2.225-.05 0 .959 0 1.918.002 2.876-.743.026-1.487.045-2.227.057zm0-3.955c0-.961 0-1.922-.002-2.883.741-.01 1.483-.021 2.225-.039.002.957.002 1.916.002 2.875-.743.022-1.486.039-2.225.047zm-.002-3.953v-2.885c.74-.006 1.483-.017 2.225-.029v2.875c-.742.019-1.484.029-2.225.039zm-.002-3.953v-2.864c.741-.005 1.483-.013 2.227-.021v2.856c-.742.013-1.485.023-2.227.029zm0-3.934l-.001-2.885c.741-.002 1.483-.006 2.226-.012l.002 2.877c-.744.008-1.486.016-2.227.02zm-1.047.004c-.744.002-1.487.002-2.23 0v-2.887c.743.002 1.487.002 2.23 0v2.887zm-3.277-.004c-.742-.004-1.483-.012-2.226-.02l.001-2.877c.742.006 1.484.01 2.226.012l-.001 2.885zm0 1.069v2.864a332.32 332.32 0 0 1-2.227-.027v-2.859c.743.01 1.484.017 2.227.022zm-3.273 2.816c-.742-.017-1.483-.033-2.225-.055l.001-2.841c.741.019 1.483.031 2.225.042l-.001 2.854zm-.001 1.066v2.873c-.742-.021-1.483-.047-2.225-.076v-2.857c.742.023 1.483.044 2.225.06zm0 3.938l-.001 2.871c-.742-.023-1.483-.055-2.224-.092v-2.859c.741.031 1.482.059 2.225.08zm-.002 3.939l-.001 2.871c-.742-.031-1.484-.066-2.225-.111l.001-2.858c.741.038 1.483.071 2.225.098zm-.002 3.938l-.001 2.869c-.742-.035-1.484-.078-2.225-.129l.001-2.857c.741.045 1.483.084 2.225.117zm-.001 3.937l-.001 2.854a91.957 91.957 0 0 1-2.225-.149l.001-2.838c.741.051 1.483.098 2.225.133zm1.047.047a97.64 97.64 0 0 0 2.228.067v2.864a97.776 97.776 0 0 1-2.229-.074l.001-2.857zm2.228 4.004v2.883a92.29 92.29 0 0 1-2.23-.084l.001-2.875c.742.033 1.486.058 2.229.076zm1.048.018c.745.009 1.49.009 2.234 0l.001 2.883a75.69 75.69 0 0 1-2.235 0v-2.883zm3.286-.018c.741-.018 1.483-.043 2.227-.076l.002 2.875c-.742.037-1.486.065-2.229.084v-2.883zm-.002-1.072V43.55a104.24 104.24 0 0 0 2.229-.067v2.857c-.744.033-1.487.058-2.229.074zm3.274-2.979a92.106 92.106 0 0 0 2.224-.135c0 .945 0 1.895.002 2.838-.74.059-1.482.107-2.226.15v-2.853zm0-1.066l-.002-2.871a103.91 103.91 0 0 0 2.225-.117l.001 2.857c-.74.051-1.483.095-2.224.131zm-.002-3.938l-.001-2.871c.742-.027 1.482-.061 2.224-.098l.001 2.857c-.74.044-1.483.081-2.224.112zm-.001-3.937l-.002-2.871c.742-.021 1.482-.051 2.225-.079l.001 2.856c-.741.037-1.484.068-2.224.094zm-.002-3.938c0-.957 0-1.916-.002-2.873.742-.016 1.484-.037 2.226-.061l.001 2.857c-.74.03-1.483.056-2.225.077zm-.002-3.939v-2.854c.74-.011 1.482-.025 2.224-.042l.001 2.841c-.74.021-1.483.039-2.225.055zm-.002-3.918v-2.874c.742-.007 1.482-.014 2.225-.023l.001 2.859c-.741.015-1.482.028-2.226.038zm0-3.939c-.002-.958-.002-1.915-.002-2.873.742 0 1.481-.003 2.225-.004l.002 2.858c-.742.009-1.484.015-2.225.019zm-1.047.007c-.742.004-1.482.007-2.225.009v-2.884l2.225-.002v2.877zm-3.27.012h-2.229v-2.885h2.229v2.885zm-3.275-.002c-.742-.002-1.483-.005-2.225-.009v-2.877l2.225.002v2.884zm-3.271-.017a550.13 550.13 0 0 1-2.225-.019l.001-2.858c.742.001 1.483.004 2.224.004v2.873zm0 1.067l-.001 2.872c-.741-.01-1.483-.021-2.224-.035v-2.859l2.225.022zM8.768 22.64c-.741-.018-1.482-.035-2.223-.057v-2.831l2.223.036v2.852zm-.001 1.057v2.832c-.741-.024-1.482-.053-2.223-.084v-2.811c.74.024 1.482.045 2.223.063zm-.001 3.89l-.001 2.85c-.74-.033-1.481-.068-2.222-.111v-2.83c.741.033 1.482.064 2.223.091zm-.001 3.907l-.001 2.852c-.74-.04-1.481-.087-2.221-.139v-2.831c.74.044 1.48.083 2.222.118zm-.002 3.91v2.851a136.36 136.36 0 0 1-2.22-.168v-2.829c.739.052 1.479.103 2.22.146zm-.001 3.908l-.001 2.852a126.02 126.02 0 0 1-2.219-.195v-2.83c.739.064 1.479.121 2.22.173zm-.002 3.907l-.001 2.832c-.74-.065-1.479-.14-2.218-.224v-2.812c.74.077 1.479.145 2.219.204zm-.001 3.89v2.851a75.289 75.289 0 0 1-2.219-.253v-2.828c.739.085 1.479.16 2.219.23zm1.045.092c.741.06 1.483.111 2.224.154v2.868a92.067 92.067 0 0 1-2.225-.166l.001-2.856zm2.223 4.09v2.873a79.11 79.11 0 0 1-2.225-.188l.001-2.857a78.93 78.93 0 0 0 2.224.172zm1.048.062c.743.039 1.486.067 2.229.086v2.885a82.857 82.857 0 0 1-2.229-.094v-2.877zm3.278.106c.745.009 1.49.009 2.235 0v2.885c-.745.013-1.491.013-2.235 0v-2.885zm3.286-.02a92.814 92.814 0 0 0 2.229-.086l.001 2.877c-.743.041-1.485.072-2.229.094l-.001-2.885zm3.274-.148a79.361 79.361 0 0 0 2.226-.172v2.857c-.74.073-1.481.135-2.224.188l-.002-2.873zm0-1.067l-.001-2.869c.742-.043 1.484-.095 2.225-.154 0 .953 0 1.906.002 2.857-.743.065-1.485.121-2.226.166zm3.271-3.115a91.956 91.956 0 0 0 2.217-.229v2.83a96.32 96.32 0 0 1-2.217.252v-2.853zm0-1.058c-.002-.944-.002-1.888-.002-2.832.739-.06 1.48-.127 2.219-.202v2.811c-.739.084-1.478.158-2.217.223zm-.002-3.889l-.002-2.85c.74-.052 1.48-.109 2.219-.176.002.943.002 1.887.002 2.83-.739.073-1.48.139-2.219.196zm-.002-3.909c0-.95 0-1.9-.002-2.852.742-.041 1.482-.093 2.221-.146v2.829c-.739.066-1.479.119-2.219.169zm-.002-3.908v-2.852c.74-.034 1.481-.073 2.221-.117v2.83c-.74.052-1.481.099-2.221.139zm-.001-3.908l-.001-2.85a272.87 272.87 0 0 0 2.221-.092l.002 2.83c-.74.042-1.481.079-2.222.112zm-.001-3.908l-.001-2.832c.742-.018 1.482-.039 2.222-.063v2.811c-.74.031-1.48.058-2.221.084zm-.002-3.889l-.001-2.851c.741-.01 1.483-.022 2.224-.035v2.831c-.74.02-1.482.038-2.223.055zM8.769 15.881l-.001 2.85c-.741-.008-1.482-.018-2.223-.028v-2.83l2.224.008zM6.54 50.758c.738.097 1.478.183 2.218.258v2.853a91.37 91.37 0 0 1-2.218-.28v-2.831zm19.644 3.111v-2.853a79.183 79.183 0 0 0 2.217-.259c.002.941.002 1.889.002 2.83-.74.106-1.478.198-2.219.282z"/><path fill="#FFF" id="svg5.highlight_2_" d="M0 .943h5.497S12.344 0 17.471 0C22.6 0 29.48.943 29.48.943h5.496v41.951s-12.076-.521-18.623-2.548C9.807 38.32 0 30.557 0 30.557V.943z" opacity=".17"/></svg><text x="1330.548" y="463.154" stroke="none" transform="translate(-737 -233)" text-rendering="geometricPrecision" stroke-miterlimit="1.45" shape-rendering="geometricPrecision" font-family="sans-serif" stroke-linecap="butt">Server 3 (10.0.0.4)</text></g><g id="y.edge.3"><path fill="none" d="M1066.883 368H943.046" transform="translate(-737 -233)" text-rendering="geometricPrecision" stroke-miterlimit="1.45" shape-rendering="geometricPrecision" stroke-linecap="butt"/><text x="953.013" y="388.357" stroke="none" transform="translate(-737 -233)" text-rendering="geometricPrecision" stroke-miterlimit="1.45" shape-rendering="geometricPrecision" font-family="sans-serif" stroke-linecap="butt">Public network</text></g><path fill="none" d="M1289.43 277h-96.481v91h-90.933" transform="translate(-737 -233)" text-rendering="geometricPrecision" stroke-miterlimit="1.45" shape-rendering="geometricPrecision" stroke-linecap="butt" id="y.edge.1"/><path fill="none" d="M1289.478 368h-187.48" transform="translate(-737 -233)" text-rendering="geometricPrecision" stroke-miterlimit="1.45" shape-rendering="geometricPrecision" stroke-linecap="butt" id="y.edge.0"/><g id="y.edge.2"><path fill="none" d="M1289.43 459h-96.481v-91h-90.933" transform="translate(-737 -233)" text-rendering="geometricPrecision" stroke-miterlimit="1.45" shape-rendering="geometricPrecision" stroke-linecap="butt"/><text x="1199.392" y="324.968" stroke="none" transform="translate(-737 -233)" text-rendering="geometricPrecision" stroke-miterlimit="1.45" shape-rendering="geometricPrecision" font-family="sans-serif" stroke-linecap="butt">Private network</text></g><g visibility="hidden" id="tooltip.y.node.2" pointer-events="none" text-rendering="geometricPrecision" shape-rendering="geometricPrecision" font-family="sans-serif"><g fill="#C3D4E8" stroke="none"><path clip-path="url(#clipPath3)" d="M0 0h60v17H0z"/><text fill="#000" x="4" y="13" clip-path="url(#clipPath3)">Server 1</text></g><path d="M0 0h60v17H0V0zm1 1h58v15H1V1z" fill-rule="evenodd" clip-path="url(#clipPath3)" stroke="none" fill="#316AC4"/></g></svg>